# xmcd
#
# Track frame offsets: 
#        150
#        11394
#        26570
#        39089
#        47414
#        58148
#        69320
#        82284
#        92966
#        106111
#        119030
#        128723
#        136874
#        149012
#        163717
#
# Disc length: 2236 seconds
#
# Revision: 0
# Processed by: cddbd v1.5.2PL0 Copyright (c) Steve Scherf et al.
# Submitted via: ExactAudioCopy v0.99pb3
#
DISCID=cc08ba0f
DTITLE=The Booglerizers - Ironbound Blues
DYEAR=2007
DGENRE=Blues
TTITLE0=Ironbound Blues
TTITLE1=She Can't Stop Dreaming of Elvis
TTITLE2=Devil Got My Woman
TTITLE3=Jamais Suzanne
TTITLE4=Buckets of Rain
TTITLE5=Spider Hat Pin
TTITLE6=Sweet Sue
TTITLE7=Malted Johnson
TTITLE8=Gee Baby Ain't I Good to You
TTITLE9=Unbrella Funeral
TTITLE10=Down and Blue
TTITLE11=20 Million Things
TTITLE12=Baby for You
TTITLE13=Viola Lee Blues
TTITLE14=Peanut Box
EXTD=
EXTT0=
EXTT1=
EXTT2=
EXTT3=
EXTT4=
EXTT5=
EXTT6=
EXTT7=
EXTT8=
EXTT9=
EXTT10=
EXTT11=
EXTT12=
EXTT13=
EXTT14=
PLAYORDER=
